<?xml version="1.0" encoding="UTF-8"?><svg id="Ebene_2" xmlns="http://www.w3.org/2000/svg" viewBox="0 0 368.1 81.55"><g id="Ebene_1-2"><g><path d="m0,1.97h10.53v67.75h35.63v9.87H0V1.97Z" style="fill:#424241;"/><path d="m56.89,1.97h10.53v77.61h-10.53V1.97Z" style="fill:#424241;"/><path d="m103.59,11.84h-25V1.97h60.51v9.87h-24.99v67.75h-10.52V11.84Z" style="fill:#424241;"/><path d="m150.29,1.97h10.53v32.23h40.23V1.97h10.52v77.61h-10.52v-35.52h-40.23v35.52h-10.53V1.97Z" style="fill:#424241;"/><path d="m267.14,81.55c-5.92,0-11.37-1.04-16.33-3.12-4.97-2.08-9.23-4.95-12.77-8.6-3.55-3.65-6.32-7.97-8.33-12.94-2.01-4.97-3.02-10.34-3.02-16.12s1-11.14,3.02-16.12c2.01-4.97,4.79-9.28,8.33-12.94,3.54-3.65,7.8-6.52,12.77-8.6,4.97-2.08,10.42-3.12,16.33-3.12s11.36,1.04,16.33,3.12,9.23,4.95,12.77,8.6c3.54,3.66,6.32,7.97,8.33,12.94,2.01,4.97,3.02,10.34,3.02,16.12s-1,11.15-3.02,16.12c-2.01,4.97-4.79,9.28-8.33,12.94-3.55,3.65-7.81,6.52-12.77,8.6s-10.41,3.12-16.33,3.12Zm0-9.86c4.46,0,8.47-.83,12.06-2.47,3.58-1.65,6.65-3.85,9.21-6.63,2.56-2.78,4.53-6.05,5.92-9.81,1.39-3.76,2.08-7.77,2.08-12s-.69-8.24-2.08-12c-1.39-3.76-3.36-7.03-5.92-9.81-2.56-2.77-5.62-4.99-9.21-6.63-3.58-1.65-7.6-2.47-12.06-2.47s-8.48.82-12.06,2.47c-3.58,1.64-6.65,3.85-9.21,6.63-2.56,2.78-4.53,6.05-5.92,9.81-1.39,3.76-2.08,7.77-2.08,12s.69,8.24,2.08,12c1.39,3.76,3.36,7.03,5.92,9.81,2.56,2.78,5.62,4.99,9.21,6.63,3.58,1.64,7.6,2.47,12.06,2.47Z" style="fill:#424241;"/><path d="m325.02,63.36c1.9,2.85,4.33,4.95,7.29,6.3,2.96,1.35,6.01,2.03,9.15,2.03,1.75,0,3.54-.28,5.37-.83,1.82-.55,3.49-1.37,4.99-2.47s2.73-2.44,3.68-4.05c.95-1.61,1.42-3.47,1.42-5.59,0-3-.95-5.28-2.85-6.85-1.9-1.57-4.26-2.89-7.07-3.95-2.81-1.06-5.88-2.08-9.21-3.07-3.33-.99-6.4-2.36-9.21-4.11s-5.17-4.11-7.07-7.07c-1.9-2.96-2.85-6.96-2.85-12,0-2.27.5-4.67,1.48-7.23.99-2.56,2.54-4.9,4.66-7.02s4.84-3.89,8.17-5.32c3.33-1.42,7.33-2.14,12-2.14,4.24,0,8.3.58,12.17,1.75,3.88,1.17,7.27,3.55,10.2,7.12l-8.55,7.78c-1.32-2.04-3.18-3.69-5.59-4.93-2.41-1.24-5.16-1.86-8.23-1.86s-5.35.38-7.29,1.15-3.49,1.75-4.66,2.96c-1.17,1.21-1.99,2.51-2.47,3.89-.48,1.39-.71,2.67-.71,3.84,0,3.29.95,5.81,2.85,7.56,1.9,1.75,4.26,3.18,7.07,4.27s5.88,2.08,9.21,2.96c3.33.87,6.4,2.1,9.21,3.67,2.81,1.57,5.17,3.69,7.07,6.36,1.9,2.67,2.85,6.34,2.85,11.02,0,3.73-.71,7.09-2.14,10.09-1.43,3-3.35,5.52-5.76,7.56-2.41,2.05-5.26,3.62-8.55,4.71-3.29,1.09-6.79,1.64-10.52,1.64-4.97,0-9.68-.87-14.14-2.63-4.46-1.76-8-4.46-10.63-8.11l8.66-7.45Z" style="fill:#424241;"/></g></g></svg>