<?xml version="1.0" encoding="utf-8"?>
<!-- Generator: Adobe Illustrator 27.2.0, SVG Export Plug-In . SVG Version: 6.00 Build 0)  -->
<svg version="1.1" id="Ebene_2_00000176724548280493944050000011237014000371599017_"
	 xmlns="http://www.w3.org/2000/svg" xmlns:xlink="http://www.w3.org/1999/xlink" x="0px" y="0px" viewBox="0 0 455.4 81.6"
	 style="enable-background:new 0 0 455.4 81.6;" xml:space="preserve">
<style type="text/css">
	.st0{fill:#424241;}
	.st1{fill:#B90027;}
</style>
<g id="Ebene_1-2">
	<g>
		<path class="st0" d="M87.3,2h10.5v67.8h35.6v9.9H87.3V2z"/>
		<path class="st0" d="M144.2,2h10.5v77.6h-10.5V2z"/>
		<path class="st0" d="M190.9,11.9h-25V2h60.5v9.9h-25v67.7h-10.5V11.9z"/>
		<path class="st0" d="M237.6,2h10.5v32.2h40.2V2h10.5v77.6h-10.5V44.1h-40.2v35.5h-10.5V2z"/>
		<path class="st0" d="M354.5,81.6c-5.9,0-11.4-1-16.3-3.1c-5-2.1-9.2-4.9-12.8-8.6c-3.5-3.7-6.3-8-8.3-12.9c-2-5-3-10.3-3-16.1
			s1-11.1,3-16.1c2-5,4.8-9.3,8.3-12.9c3.5-3.7,7.8-6.5,12.8-8.6S348.6,0,354.5,0s11.4,1,16.3,3.1s9.2,4.9,12.8,8.6
			c3.5,3.7,6.3,8,8.3,12.9c2,5,3,10.3,3,16.1s-1,11.2-3,16.1c-2,5-4.8,9.3-8.3,12.9c-3.5,3.7-7.8,6.5-12.8,8.6
			S360.4,81.6,354.5,81.6z M354.5,71.7c4.5,0,8.5-0.8,12.1-2.5c3.6-1.7,6.6-3.8,9.2-6.6c2.6-2.8,4.5-6,5.9-9.8
			c1.4-3.8,2.1-7.8,2.1-12s-0.7-8.2-2.1-12c-1.4-3.8-3.4-7-5.9-9.8c-2.6-2.8-5.6-5-9.2-6.6c-3.6-1.6-7.6-2.5-12.1-2.5
			s-8.5,0.8-12.1,2.5c-3.6,1.6-6.6,3.8-9.2,6.6s-4.5,6-5.9,9.8c-1.4,3.8-2.1,7.8-2.1,12s0.7,8.2,2.1,12c1.4,3.8,3.4,7,5.9,9.8
			s5.6,5,9.2,6.6C346,70.9,350,71.7,354.5,71.7z"/>
		<path class="st0" d="M412.4,63.4c1.9,2.8,4.3,4.9,7.3,6.3c3,1.3,6,2,9.1,2c1.8,0,3.5-0.3,5.4-0.8c1.8-0.6,3.5-1.4,5-2.5
			s2.7-2.4,3.7-4.1c1-1.6,1.4-3.5,1.4-5.6c0-3-1-5.3-2.9-6.8s-4.3-2.9-7.1-4s-5.9-2.1-9.2-3.1c-3.3-1-6.4-2.4-9.2-4.1
			s-5.2-4.1-7.1-7.1s-2.9-7-2.9-12c0-2.3,0.5-4.7,1.5-7.2c1-2.6,2.5-4.9,4.7-7s4.8-3.9,8.2-5.3c3.3-1.4,7.3-2.1,12-2.1
			c4.2,0,8.3,0.6,12.2,1.8c3.9,1.2,7.3,3.6,10.2,7.1l-8.5,7.8c-1.3-2-3.2-3.7-5.6-4.9s-5.2-1.9-8.2-1.9S427,10.2,425,11
			s-3.5,1.8-4.7,3s-2,2.5-2.5,3.9c-0.5,1.4-0.7,2.7-0.7,3.8c0,3.3,1,5.8,2.9,7.6s4.3,3.2,7.1,4.3s5.9,2.1,9.2,3
			c3.3,0.9,6.4,2.1,9.2,3.7s5.2,3.7,7.1,6.4c1.9,2.7,2.9,6.3,2.9,11c0,3.7-0.7,7.1-2.1,10.1c-1.4,3-3.4,5.5-5.8,7.6
			c-2.4,2.1-5.3,3.6-8.5,4.7c-3.3,1.1-6.8,1.6-10.5,1.6c-5,0-9.7-0.9-14.1-2.6c-4.5-1.8-8-4.5-10.6-8.1L412.4,63.4L412.4,63.4z"/>
	</g>
</g>
<polyline class="st1" points="0,79.6 77.6,79.6 38.8,2 "/>
</svg>
